{"glyphs":{"0":{"ha":778,"x_min":0,"x_max":0,"o":"m 711 483 b 597 904 711 669 694 806 b 389 985 550 951 485 985 b 181 904 293 985 228 951 b 67 483 83 806 67 669 b 181 64 67 297 83 163 b 389 -18 228 17 293 -18 b 597 64 485 -18 550 17 b 711 483 694 163 711 297 z m 588 483 b 508 135 588 353 590 213 b 389 90 481 108 440 90 b 269 135 338 90 297 108 b 190 483 188 213 190 353 b 269 832 190 614 188 754 b 389 876 297 858 338 876 b 508 832 440 876 481 858 b 588 483 590 754 588 614 z "},"1":{"ha":778,"x_min":0,"x_max":0,"o":"m 511 0 l 511 965 l 397 965 l 161 794 l 161 663 l 390 831 l 390 0 z "},"2":{"ha":778,"x_min":0,"x_max":0,"o":"m 679 0 l 679 111 l 254 111 l 582 518 b 664 724 635 583 664 647 b 619 874 664 785 649 832 b 383 985 571 942 489 985 b 99 703 213 985 99 871 l 221 703 b 385 878 221 831 299 878 b 543 722 486 878 543 821 b 490 583 543 672 526 629 l 100 101 l 100 0 z "},"3":{"ha":778,"x_min":0,"x_max":0,"o":"m 686 264 b 525 500 686 364 628 465 b 667 718 604 533 667 628 b 589 907 667 801 638 863 b 383 985 538 956 464 985 b 176 915 300 985 231 960 b 83 703 119 868 85 799 l 204 703 b 263 839 206 761 225 808 b 381 878 292 863 328 878 b 499 831 433 878 472 857 b 544 718 529 801 544 763 b 367 556 544 617 478 556 l 308 556 l 308 446 l 367 446 b 565 267 485 446 565 385 b 519 144 565 214 546 174 b 379 89 486 107 438 89 b 247 143 318 89 276 111 b 197 276 215 176 200 222 l 76 276 b 158 69 78 188 108 119 b 379 -18 213 15 286 -18 b 613 69 488 -18 561 15 b 686 264 660 119 686 189 z "},"4":{"ha":778,"x_min":0,"x_max":0,"o":"m 735 206 l 735 313 l 604 313 l 604 600 l 485 600 l 485 313 l 156 313 l 533 965 l 408 965 l 42 329 l 42 206 l 485 206 l 485 0 l 604 0 l 604 206 z "},"5":{"ha":778,"x_min":0,"x_max":0,"o":"m 708 318 b 622 558 708 414 679 500 b 425 638 575 607 510 638 b 222 550 343 638 265 613 l 238 858 l 669 858 l 669 965 l 136 965 l 110 447 l 242 447 b 401 532 275 503 336 532 b 535 478 463 532 504 511 b 589 313 571 438 589 379 b 542 151 589 247 574 192 b 401 89 513 114 468 89 b 263 140 340 89 294 108 b 208 278 231 172 211 217 l 90 278 b 179 64 94 189 125 117 b 403 -19 232 13 308 -19 b 628 72 504 -19 578 17 b 708 318 682 132 708 217 z "},"6":{"ha":778,"x_min":0,"x_max":0,"o":"m 715 311 b 618 561 715 413 681 501 b 415 636 572 606 503 636 b 201 524 324 636 232 590 b 269 819 203 625 208 750 b 401 878 299 853 340 878 b 510 840 447 878 482 864 b 564 732 539 815 561 779 l 683 732 b 606 906 681 803 649 863 b 406 985 557 954 488 985 b 154 854 283 985 200 926 b 82 469 89 750 82 607 b 164 101 82 332 94 197 b 400 -18 211 36 292 -18 b 628 75 500 -18 576 19 b 715 311 682 135 715 214 z m 596 310 b 539 144 596 242 576 185 b 406 89 508 111 467 89 b 271 147 344 89 301 114 b 214 310 233 188 214 242 b 268 472 214 378 232 432 b 403 531 297 506 342 531 b 539 475 464 531 510 508 b 596 310 575 435 596 378 z "},"7":{"ha":778,"x_min":0,"x_max":0,"o":"m 689 858 l 689 965 l 69 965 l 69 858 l 564 858 l 163 0 l 290 0 z "},"8":{"ha":778,"x_min":0,"x_max":0,"o":"m 701 265 b 550 503 701 371 639 463 b 682 721 629 544 682 628 b 603 907 682 800 650 863 b 389 985 549 957 474 985 b 175 907 304 985 229 957 b 96 721 128 863 96 800 b 228 503 96 628 149 544 b 76 265 139 463 76 371 b 140 88 76 192 101 133 b 389 -18 197 19 288 -18 b 638 88 490 -18 581 19 b 701 265 676 133 701 192 z m 563 721 b 389 554 563 632 500 554 b 215 721 278 554 215 632 b 389 881 215 819 293 881 b 563 721 485 881 563 819 z m 582 271 b 389 86 582 157 501 86 b 196 271 276 86 196 157 b 389 451 196 374 267 451 b 582 271 511 451 582 374 z "},"9":{"ha":778,"x_min":0,"x_max":0,"o":"m 701 497 b 619 865 701 633 689 769 b 383 985 572 929 492 985 b 156 892 283 985 207 947 b 68 656 101 832 68 753 b 165 406 68 553 103 465 b 368 331 211 361 281 331 b 582 443 460 331 551 376 b 514 147 581 342 575 217 b 382 89 485 114 443 89 b 274 126 336 89 301 101 b 219 235 244 151 222 188 l 100 235 b 178 61 103 164 135 104 b 378 -18 226 11 296 -18 b 629 113 500 -18 583 40 b 701 497 694 217 701 360 z m 569 657 b 515 494 569 589 551 535 b 381 436 486 461 442 436 b 244 492 319 436 274 458 b 188 657 208 532 188 589 b 244 822 188 725 207 782 b 378 878 275 856 317 878 b 513 819 439 878 482 853 b 569 657 550 779 569 725 z "}," ":{"ha":319,"x_min":0,"x_max":0,"o":""},"˘":{"ha":489,"x_min":0,"x_max":0,"o":"m 469 1000 l 375 1000 b 242 872 365 922 324 872 b 107 1000 160 872 117 922 l 13 1000 b 242 783 22 879 96 783 b 469 1000 388 783 460 879 z "},"˙":{"ha":382,"x_min":0,"x_max":0,"o":"m 260 864 l 260 1003 l 122 1003 l 122 864 z "},"˚":{"ha":306,"x_min":0,"x_max":0,"o":"m 306 931 b 153 1079 306 1007 249 1079 b 0 931 57 1079 0 1007 b 153 782 0 854 57 782 b 306 931 249 782 306 854 z m 228 931 b 153 854 228 889 199 854 b 76 931 107 854 76 889 b 153 1008 76 972 107 1008 b 228 931 199 1008 228 972 z "},"˝":{"ha":638,"x_min":0,"x_max":0,"o":"m 625 913 l 560 1013 l 321 833 l 365 768 z m 329 913 l 264 1013 l 25 833 l 69 768 z "},"˛":{"ha":242,"x_min":0,"x_max":0,"o":"m 229 -268 l 121 -81 l 13 -81 l 108 -325 z "},"ˇ":{"ha":511,"x_min":0,"x_max":0,"o":"m 44 1229 l 218 1047 l 294 1047 l 468 1229 l 406 1292 l 257 1132 l 107 1292 z "},"ı":{"ha":379,"x_min":0,"x_max":0,"o":"m 250 0 l 250 703 l 131 703 l 131 0 z "},"⁄":{"ha":817,"x_min":0,"x_max":0,"o":"m 804 951 l 728 1006 l 13 28 l 88 -29 z "},"ﬁ":{"ha":886,"x_min":0,"x_max":0,"o":"m 501 906 l 501 1004 b 371 1017 463 1011 419 1017 b 167 828 249 1017 167 933 l 167 703 l 39 703 l 39 603 l 167 603 l 167 0 l 285 0 l 285 603 l 488 603 l 488 703 l 285 703 l 285 821 b 385 917 285 878 322 917 b 501 906 435 917 464 910 z m 765 864 l 765 1003 l 628 1003 l 628 864 z m 757 0 l 757 703 l 636 703 l 636 0 z "},"ﬂ":{"ha":919,"x_min":0,"x_max":0,"o":"m 501 906 l 501 1004 b 371 1017 463 1011 419 1017 b 167 828 249 1017 167 933 l 167 703 l 39 703 l 39 603 l 167 603 l 167 0 l 285 0 l 285 603 l 488 603 l 488 703 l 285 703 l 285 821 b 385 917 285 878 322 917 b 501 906 435 917 464 910 z m 871 0 l 871 100 b 822 99 871 100 861 99 b 758 171 774 99 758 124 l 758 1003 l 640 1003 l 640 164 b 788 -8 640 53 685 -8 b 871 0 844 -8 871 0 z "},"Ł":{"ha":785,"x_min":0,"x_max":0,"o":"m 765 0 l 765 115 l 292 115 l 292 488 l 514 625 l 468 699 l 292 589 l 292 985 l 168 985 l 168 513 l 32 428 l 78 356 l 168 411 l 168 0 z "},"ł":{"ha":463,"x_min":0,"x_max":0,"o":"m 428 647 l 382 721 l 271 651 l 271 1003 l 153 1003 l 153 578 l 28 500 l 74 428 l 153 476 l 153 164 b 300 -8 153 53 197 -8 b 383 0 357 -8 383 0 l 383 100 b 335 99 383 100 374 99 b 271 171 286 99 271 124 l 271 550 z "},"Ž":{"ha":850,"x_min":0,"x_max":0,"o":"m 786 0 l 786 115 l 206 115 l 781 860 l 781 985 l 65 985 l 65 869 l 633 869 l 60 124 l 60 0 z m 210 1229 l 383 1047 l 460 1047 l 633 1229 l 571 1292 l 422 1132 l 272 1292 z "},"ž":{"ha":696,"x_min":0,"x_max":0,"o":"m 629 0 l 629 103 l 218 103 l 625 599 l 625 703 l 74 703 l 74 600 l 482 600 l 74 104 l 74 0 z m 161 931 l 317 767 l 386 767 l 542 931 l 486 986 l 353 843 l 217 986 z "},"!":{"ha":460,"x_min":0,"x_max":0,"o":"m 322 674 l 322 985 l 181 985 l 181 674 l 213 299 l 293 299 z m 328 0 l 328 151 l 181 151 l 181 0 z "},"\"":{"ha":617,"x_min":0,"x_max":0,"o":"m 492 814 l 492 985 l 360 985 l 360 814 l 389 601 l 463 601 z m 257 814 l 257 985 l 125 985 l 125 814 l 154 601 l 228 601 z "},"#":{"ha":1044,"x_min":0,"x_max":0,"o":"m 947 594 l 947 703 l 774 703 l 810 965 l 701 965 l 664 703 l 451 703 l 488 965 l 379 965 l 343 703 l 150 703 l 150 594 l 328 594 l 297 371 l 104 371 l 104 264 l 282 264 l 246 1 l 354 1 l 392 264 l 604 264 l 568 1 l 676 1 l 713 264 l 901 264 l 901 371 l 728 371 l 758 594 z m 650 594 l 618 371 l 406 371 l 436 594 z "},"$":{"ha":778,"x_min":0,"x_max":0,"o":"m 744 283 b 483 553 744 444 633 533 l 442 558 l 442 875 b 558 817 492 868 529 847 b 608 692 589 785 606 742 l 732 692 b 640 893 729 772 697 838 b 442 982 588 944 518 974 l 442 1111 l 361 1111 l 361 983 b 149 890 281 976 210 949 b 67 704 99 843 67 775 b 310 454 67 560 174 471 b 361 447 326 453 344 450 l 361 110 b 229 168 310 117 265 135 b 164 317 189 204 164 260 l 42 317 b 140 92 42 226 79 147 b 361 1 199 39 274 8 l 361 -125 l 442 -125 l 442 1 b 664 96 528 10 607 40 b 744 283 710 142 744 204 z m 361 567 l 321 572 b 189 707 246 582 189 624 b 228 815 189 750 203 788 b 361 876 264 854 310 871 z m 622 281 b 572 165 622 229 601 193 b 442 110 538 132 494 115 l 442 438 l 464 435 b 622 281 557 424 622 371 z "},"%":{"ha":1276,"x_min":0,"x_max":0,"o":"m 1186 247 b 1143 417 1186 311 1175 369 b 960 514 1106 471 1047 514 b 776 417 872 514 814 471 b 733 247 744 369 733 311 b 776 79 733 183 744 126 b 960 -18 814 25 872 -18 b 1143 79 1047 -18 1106 25 b 1186 247 1175 126 1186 183 z m 1036 951 l 960 1006 l 244 28 l 319 -29 z m 536 738 b 493 907 536 801 525 860 b 310 1004 456 961 397 1004 b 126 907 222 1004 164 961 b 83 738 94 860 83 801 b 126 569 83 674 94 617 b 310 472 164 515 222 472 b 493 569 397 472 456 515 b 536 738 525 617 536 674 z m 1079 247 b 1039 108 1079 190 1069 140 b 960 75 1021 89 999 75 b 879 108 921 75 897 89 b 839 247 849 140 839 190 b 879 388 839 304 849 356 b 960 421 897 407 921 421 b 1039 388 999 421 1021 407 b 1079 247 1069 356 1079 304 z m 429 738 b 389 599 429 681 419 631 b 310 565 371 579 349 565 b 229 599 271 565 247 579 b 189 738 199 631 189 681 b 229 878 189 794 199 846 b 310 911 247 897 271 911 b 389 878 349 911 371 897 b 429 738 419 846 429 794 z "},"&":{"ha":1024,"x_min":0,"x_max":0,"o":"m 938 461 l 938 563 l 725 563 b 690 276 725 481 729 347 l 486 507 b 557 551 510 521 533 538 b 683 769 638 600 683 676 b 432 1003 683 914 578 1003 b 183 774 289 1003 183 910 b 300 543 183 671 236 614 b 251 513 283 533 268 524 b 113 267 165 458 113 369 b 421 -18 113 90 251 -18 b 701 96 525 -18 632 17 l 786 0 l 936 0 l 768 188 b 836 461 814 253 836 371 z m 568 768 b 411 588 568 665 489 631 b 299 775 363 642 299 696 b 429 903 299 850 351 903 b 568 768 518 903 568 850 z m 626 181 b 414 92 572 111 500 92 b 231 269 311 92 231 165 b 315 428 231 335 261 392 b 372 464 335 440 353 451 z "},"'":{"ha":368,"x_min":0,"x_max":0,"o":"m 250 814 l 250 985 l 118 985 l 118 814 l 147 601 l 221 601 z "},"(":{"ha":421,"x_min":0,"x_max":0,"o":"m 400 -146 b 196 447 267 31 196 218 b 400 1040 196 676 267 864 l 326 1092 b 93 447 175 921 93 672 b 326 -197 93 222 175 -26 z "},")":{"ha":421,"x_min":0,"x_max":0,"o":"m 328 447 b 94 1092 328 672 246 921 l 21 1040 b 225 447 154 864 225 676 b 21 -146 225 218 154 31 l 94 -197 b 328 447 246 -26 328 222 z "},"*":{"ha":740,"x_min":0,"x_max":0,"o":"m 664 711 l 629 821 l 415 738 l 429 967 l 314 967 l 325 738 l 113 821 l 76 711 l 297 654 l 153 478 l 246 408 l 369 601 l 494 408 l 588 475 l 443 654 z "},"+":{"ha":946,"x_min":0,"x_max":0,"o":"m 856 372 l 856 468 l 521 468 l 521 811 l 424 811 l 424 468 l 90 468 l 90 372 l 424 372 l 424 7 l 521 7 l 521 372 z "},",":{"ha":408,"x_min":0,"x_max":0,"o":"m 290 -1 l 290 161 l 121 161 l 121 -1 l 207 -1 b 118 -154 207 -81 190 -122 l 154 -219 b 290 -1 256 -176 290 -104 z "},"-":{"ha":607,"x_min":0,"x_max":0,"o":"m 510 364 l 510 474 l 97 474 l 97 364 z "},".":{"ha":408,"x_min":0,"x_max":0,"o":"m 286 0 l 286 165 l 122 165 l 122 0 z "},"/":{"ha":554,"x_min":0,"x_max":0,"o":"m 546 1003 l 451 1003 l 24 -18 l 118 -18 z "},":":{"ha":422,"x_min":0,"x_max":0,"o":"m 300 549 l 300 703 l 147 703 l 147 549 z m 300 -1 l 300 151 l 147 151 l 147 -1 z "},";":{"ha":422,"x_min":0,"x_max":0,"o":"m 300 547 l 300 703 l 147 703 l 147 547 z m 300 0 l 300 153 l 147 153 l 147 0 l 226 0 b 143 -144 226 -72 213 -114 l 175 -206 b 300 0 271 -165 300 -101 z "},"<":{"ha":656,"x_min":0,"x_max":0,"o":"m 572 50 l 199 424 l 572 797 l 504 864 l 63 424 l 506 -18 z "},"=":{"ha":961,"x_min":0,"x_max":0,"o":"m 815 478 l 815 585 l 146 585 l 146 478 z m 815 186 l 815 293 l 146 293 l 146 186 z "},">":{"ha":656,"x_min":0,"x_max":0,"o":"m 593 424 l 151 864 l 83 797 l 457 424 l 83 50 l 150 -18 z "},"?":{"ha":700,"x_min":0,"x_max":0,"o":"m 658 743 b 367 1007 658 908 524 1007 b 56 701 163 1007 56 858 l 181 701 b 367 900 181 810 246 900 b 494 850 417 900 464 882 b 536 744 521 822 536 786 b 451 583 536 669 507 626 b 296 301 342 499 296 450 l 296 263 l 410 263 l 410 297 b 508 488 410 382 419 422 b 658 743 603 557 658 632 z m 425 0 l 425 153 l 278 153 l 278 0 z "},"@":{"ha":1310,"x_min":0,"x_max":0,"o":"m 1215 528 b 1086 858 1215 669 1167 779 b 696 1003 992 951 854 1003 b 279 844 525 1003 382 943 b 118 440 178 747 118 611 b 289 14 118 264 181 114 b 660 -119 381 -71 508 -119 b 1010 -50 781 -119 899 -104 l 1010 51 b 661 -15 894 1 786 -15 b 360 104 536 -15 433 29 b 236 428 282 185 236 299 b 383 788 236 581 289 704 b 697 900 461 857 568 900 b 1003 789 824 900 931 861 b 1103 526 1065 726 1103 640 b 943 253 1103 433 1064 253 b 886 340 890 253 883 299 l 911 692 l 818 692 l 803 633 b 669 707 778 679 721 707 b 414 422 504 707 414 578 b 632 157 414 271 489 157 b 799 260 700 157 771 197 b 935 154 808 188 865 154 b 1215 528 1138 154 1215 360 z m 789 451 b 650 258 789 360 760 258 b 532 422 558 258 532 346 b 664 611 532 506 564 611 b 789 451 760 611 789 535 z "},"A":{"ha":863,"x_min":0,"x_max":0,"o":"m 851 0 l 503 985 l 358 985 l 11 0 l 136 0 l 215 233 l 643 233 l 724 0 z m 603 350 l 254 350 l 428 861 z "},"B":{"ha":928,"x_min":0,"x_max":0,"o":"m 858 275 b 694 513 858 379 796 479 b 836 731 786 546 836 636 b 772 894 836 801 811 851 b 532 985 718 954 624 985 l 139 985 l 139 0 l 536 0 b 783 90 633 0 728 31 b 858 275 826 136 858 196 z m 710 721 b 536 565 710 611 639 565 l 260 565 l 260 875 l 532 875 b 710 721 626 875 710 824 z m 732 283 b 536 114 732 167 644 114 l 260 114 l 260 457 l 539 457 b 732 283 643 457 732 393 z "},"C":{"ha":881,"x_min":0,"x_max":0,"o":"m 825 314 l 697 314 b 643 172 696 260 675 208 b 464 97 604 129 539 97 b 285 172 397 97 332 124 b 201 492 204 256 201 389 b 285 811 201 594 204 728 b 464 886 332 860 397 886 b 642 814 539 886 603 857 b 696 676 674 778 694 731 l 824 676 b 726 901 819 768 783 843 b 464 1003 667 961 571 1003 b 197 897 365 1003 268 967 b 74 492 90 793 74 649 b 197 86 74 335 90 190 b 464 -19 268 17 365 -19 b 728 86 571 -19 668 26 b 825 314 785 144 821 222 z "},"D":{"ha":940,"x_min":0,"x_max":0,"o":"m 867 493 b 740 885 867 635 849 782 b 482 985 671 951 578 985 l 139 985 l 139 0 l 482 0 b 740 99 578 0 671 32 b 867 493 847 201 867 351 z m 742 493 b 657 182 742 388 735 261 b 482 114 611 136 546 114 l 263 114 l 263 871 l 482 871 b 657 803 546 871 611 849 b 742 493 735 722 742 599 z "},"E":{"ha":868,"x_min":0,"x_max":0,"o":"m 797 0 l 797 114 l 263 114 l 263 454 l 732 454 l 732 571 l 263 571 l 263 871 l 797 871 l 797 985 l 139 985 l 139 0 z "},"F":{"ha":815,"x_min":0,"x_max":0,"o":"m 776 871 l 776 985 l 139 985 l 139 0 l 263 0 l 263 433 l 721 433 l 721 550 l 263 550 l 263 871 z "},"G":{"ha":944,"x_min":0,"x_max":0,"o":"m 842 0 l 842 531 l 467 531 l 467 415 l 731 415 b 646 165 731 325 711 229 b 467 97 601 121 536 97 b 290 168 400 97 338 119 b 201 492 208 251 201 393 b 288 811 201 594 207 728 b 467 886 335 860 400 886 b 660 808 547 886 615 861 b 704 700 685 778 700 746 l 833 700 b 749 892 829 779 796 842 b 467 1003 681 964 578 1003 b 201 897 368 1003 272 967 b 74 492 94 793 74 649 b 201 82 74 315 101 179 b 467 -19 272 13 368 -19 b 735 118 578 -19 686 38 l 756 0 z "},"H":{"ha":997,"x_min":0,"x_max":0,"o":"m 858 0 l 858 985 l 735 985 l 735 574 l 263 574 l 263 985 l 139 985 l 139 0 l 263 0 l 263 454 l 735 454 l 735 0 z "},"I":{"ha":404,"x_min":0,"x_max":0,"o":"m 265 0 l 265 985 l 139 985 l 139 0 z "},"J":{"ha":685,"x_min":0,"x_max":0,"o":"m 574 275 l 574 985 l 450 985 l 450 275 b 296 97 450 167 408 97 b 188 138 249 97 214 113 b 136 299 146 176 136 231 l 11 299 b 90 65 11 199 33 124 b 296 -18 139 15 206 -18 b 574 275 474 -18 574 99 z "},"K":{"ha":919,"x_min":0,"x_max":0,"o":"m 901 0 l 547 610 l 868 985 l 714 985 l 263 460 l 263 985 l 139 985 l 139 0 l 263 0 l 263 278 l 463 511 l 757 0 z "},"L":{"ha":756,"x_min":0,"x_max":0,"o":"m 736 0 l 736 115 l 263 115 l 263 985 l 139 985 l 139 0 z "},"M":{"ha":1222,"x_min":0,"x_max":0,"o":"m 1083 0 l 1083 985 l 910 985 l 614 183 l 317 985 l 139 985 l 139 0 l 257 0 l 257 838 l 563 14 l 660 14 l 965 831 l 965 0 z "},"N":{"ha":1019,"x_min":0,"x_max":0,"o":"m 881 0 l 881 985 l 761 985 l 761 190 l 278 985 l 139 985 l 139 0 l 258 0 l 258 792 l 742 0 z "},"O":{"ha":931,"x_min":0,"x_max":0,"o":"m 857 492 b 731 897 857 649 838 793 b 465 1003 660 967 564 1003 b 200 897 367 1003 271 967 b 74 492 93 793 74 649 b 200 86 74 335 93 190 b 465 -19 271 17 367 -19 b 731 86 564 -19 660 17 b 857 492 838 190 857 335 z m 729 492 b 644 172 729 389 725 256 b 465 99 597 124 532 99 b 286 172 399 99 333 124 b 201 492 206 256 201 389 b 286 811 201 594 206 728 b 465 885 333 860 399 885 b 644 811 532 885 597 860 b 729 492 725 728 729 594 z "},"P":{"ha":871,"x_min":0,"x_max":0,"o":"m 829 688 b 754 896 829 774 801 844 b 504 985 701 953 619 985 l 139 985 l 139 0 l 263 0 l 263 382 l 506 382 b 747 464 614 382 694 411 b 829 688 800 517 829 592 z m 701 688 b 503 494 701 556 635 494 l 263 494 l 263 872 l 501 872 b 701 688 624 872 701 813 z "},"Q":{"ha":931,"x_min":0,"x_max":0,"o":"m 857 492 b 731 897 857 649 838 793 b 465 1003 660 967 564 1003 b 200 897 367 1003 271 967 b 74 492 93 793 74 649 b 200 86 74 335 93 190 b 465 -19 271 17 367 -19 b 649 25 529 -19 592 -4 l 739 -92 l 821 -28 l 732 88 b 857 492 838 192 857 335 z m 729 492 b 656 185 729 393 725 268 l 538 335 l 457 272 l 574 122 b 465 99 539 107 503 99 b 286 172 399 99 333 124 b 201 492 206 256 201 389 b 286 811 201 594 206 728 b 465 885 333 860 399 885 b 644 811 532 885 597 860 b 729 492 725 728 729 594 z "},"R":{"ha":919,"x_min":0,"x_max":0,"o":"m 857 0 l 660 433 b 778 503 707 449 749 472 b 853 697 825 553 853 611 b 775 897 853 783 822 847 b 525 985 721 953 640 985 l 139 985 l 139 0 l 263 0 l 263 410 l 535 410 l 721 0 z m 725 697 b 525 525 725 572 642 525 l 263 525 l 263 871 l 525 871 b 725 697 642 871 725 822 z "},"S":{"ha":882,"x_min":0,"x_max":0,"o":"m 813 271 b 539 550 813 426 703 526 b 375 575 485 558 431 568 b 228 714 301 585 228 625 b 268 821 228 758 243 792 b 443 889 311 869 372 889 b 617 821 519 889 579 864 b 665 697 644 789 663 746 l 794 697 b 700 908 792 781 760 851 b 444 1003 635 971 540 1003 b 186 906 342 1003 254 969 b 100 711 133 856 100 785 b 363 450 100 554 215 472 b 518 426 415 442 464 435 b 683 268 635 408 683 344 b 633 153 683 215 664 181 b 450 96 589 111 525 96 b 261 157 381 96 306 114 b 192 313 221 196 192 254 l 63 313 b 168 76 63 219 106 135 b 450 -18 235 15 331 -18 b 729 81 556 -18 661 14 b 813 271 778 128 813 189 z "},"T":{"ha":747,"x_min":0,"x_max":0,"o":"m 729 869 l 729 985 l 18 985 l 18 869 l 311 869 l 311 0 l 436 0 l 436 869 z "},"U":{"ha":942,"x_min":0,"x_max":0,"o":"m 831 361 l 831 985 l 707 985 l 707 358 b 471 97 707 201 642 97 b 235 358 300 97 235 201 l 235 985 l 111 985 l 111 361 b 471 -18 111 115 250 -18 b 831 361 692 -18 831 115 z "},"V":{"ha":804,"x_min":0,"x_max":0,"o":"m 799 985 l 672 985 l 406 153 l 133 985 l 6 985 l 338 0 l 467 0 z "},"W":{"ha":1197,"x_min":0,"x_max":0,"o":"m 1153 985 l 1040 985 l 883 183 l 656 971 l 544 971 l 317 182 l 160 985 l 44 985 l 242 0 l 372 0 l 600 793 l 825 0 l 957 0 z "},"X":{"ha":811,"x_min":0,"x_max":0,"o":"m 790 0 l 479 497 l 786 985 l 654 985 l 411 586 l 164 985 l 26 985 l 332 497 l 21 0 l 156 0 l 403 404 l 653 0 z "},"Y":{"ha":786,"x_min":0,"x_max":0,"o":"m 786 985 l 654 985 l 397 517 l 139 985 l 0 985 l 331 400 l 331 0 l 456 0 l 456 400 z "},"Z":{"ha":850,"x_min":0,"x_max":0,"o":"m 786 0 l 786 115 l 206 115 l 781 860 l 781 985 l 65 985 l 65 869 l 633 869 l 60 124 l 60 0 z "},"[":{"ha":432,"x_min":0,"x_max":0,"o":"m 397 -158 l 397 -72 l 232 -72 l 232 965 l 397 965 l 397 1051 l 136 1051 l 136 -158 z "},"\\":{"ha":556,"x_min":0,"x_max":0,"o":"m 532 -18 l 104 1003 l 7 1003 l 435 -18 z "},"]":{"ha":432,"x_min":0,"x_max":0,"o":"m 296 -158 l 296 1051 l 35 1051 l 35 965 l 199 965 l 199 -72 l 35 -72 l 35 -158 z "},"^":{"ha":753,"x_min":0,"x_max":0,"o":"m 663 563 l 429 1003 l 324 1003 l 90 563 l 213 563 l 376 875 l 539 563 z "},"_":{"ha":757,"x_min":0,"x_max":0,"o":"m 722 -83 l 722 0 l 35 0 l 35 -83 z "},"`":{"ha":333,"x_min":0,"x_max":0,"o":"m 314 831 l 76 1001 l 14 903 l 271 765 z "},"a":{"ha":776,"x_min":0,"x_max":0,"o":"m 718 7 l 718 94 b 688 90 718 94 700 90 b 649 138 664 90 649 100 l 649 478 b 628 586 649 518 642 554 b 381 721 594 663 517 721 b 164 646 294 721 211 696 b 103 499 128 608 104 563 l 218 499 b 253 583 218 533 231 561 b 381 625 276 607 317 625 b 496 589 438 625 472 611 b 532 482 528 560 532 517 l 532 431 l 318 418 b 68 199 126 407 68 289 b 310 -18 68 90 149 -18 b 536 97 408 -18 496 26 l 539 97 b 640 -10 539 38 578 -10 b 718 7 669 -10 693 -6 z m 532 297 b 472 138 532 239 514 181 b 328 81 435 99 382 81 b 189 201 228 81 189 139 b 343 328 189 290 272 324 l 532 339 z "},"b":{"ha":826,"x_min":0,"x_max":0,"o":"m 751 350 b 644 650 751 471 715 582 b 451 721 599 693 533 721 b 247 621 375 721 285 685 l 247 1003 l 129 1003 l 129 0 l 233 0 l 242 92 b 451 -18 282 21 372 -18 b 650 58 538 -18 604 11 b 751 350 717 126 751 233 z m 631 351 b 432 82 631 222 589 82 b 318 128 381 82 346 103 b 240 351 260 179 240 264 b 318 575 240 439 260 524 b 432 621 346 600 381 621 b 631 351 589 621 631 481 z "},"c":{"ha":739,"x_min":0,"x_max":0,"o":"m 675 236 l 556 236 b 508 132 550 190 533 158 b 389 85 481 103 438 85 b 267 131 335 85 297 104 b 196 351 211 178 196 265 b 267 572 196 438 211 525 b 389 618 297 599 335 618 b 503 575 435 618 475 601 b 553 465 529 549 547 514 l 672 465 b 589 646 667 542 636 600 b 389 721 540 693 472 721 b 133 589 263 721 183 663 b 75 351 96 533 75 457 b 133 114 75 246 96 169 b 390 -18 183 40 264 -18 b 593 58 476 -18 543 10 b 675 236 640 104 669 161 z "},"d":{"ha":826,"x_min":0,"x_max":0,"o":"m 697 0 l 697 1003 l 579 1003 l 579 621 b 375 721 542 685 451 721 b 182 650 293 721 228 693 b 75 350 111 582 75 471 b 176 58 75 233 110 126 b 375 -18 222 11 289 -18 b 585 92 454 -18 544 21 l 593 0 z m 586 351 b 508 128 586 264 567 179 b 394 82 481 103 446 82 b 196 351 238 82 196 222 b 394 621 196 481 238 621 b 508 575 446 621 481 600 b 586 351 567 524 586 439 z "},"e":{"ha":765,"x_min":0,"x_max":0,"o":"m 696 383 b 607 631 697 478 664 568 b 393 721 556 686 483 721 b 128 574 271 721 178 658 b 74 349 89 508 74 433 b 161 88 74 249 103 156 b 394 -18 215 24 296 -18 b 574 35 461 -18 524 1 b 682 208 631 74 672 139 l 567 208 b 525 132 557 171 544 151 b 394 86 496 101 450 86 b 265 136 340 86 297 104 b 197 313 222 179 197 249 l 694 313 z m 575 414 l 200 414 b 393 621 203 517 265 621 b 532 557 456 621 503 596 b 575 414 560 519 575 467 z "},"f":{"ha":508,"x_min":0,"x_max":0,"o":"m 501 906 l 501 1004 b 371 1017 463 1011 419 1017 b 167 828 249 1017 167 933 l 167 703 l 39 703 l 39 603 l 167 603 l 167 0 l 285 0 l 285 603 l 488 603 l 488 703 l 285 703 l 285 821 b 385 917 285 878 322 917 b 501 906 435 917 464 910 z "},"g":{"ha":750,"x_min":0,"x_max":0,"o":"m 729 -104 b 674 33 729 -46 707 0 b 442 107 618 90 525 107 b 303 107 442 107 349 106 b 197 176 258 108 193 115 b 257 239 200 210 231 231 b 375 219 301 224 328 219 b 585 303 468 219 539 253 b 649 471 624 346 649 404 b 603 617 649 533 632 579 b 689 681 610 656 643 681 b 715 679 699 681 708 681 l 715 775 b 681 778 704 776 692 778 b 536 679 614 778 560 742 b 375 721 493 706 442 721 b 167 642 282 721 215 692 b 100 471 126 600 100 547 b 181 289 100 404 129 335 b 88 153 128 264 88 215 b 169 35 88 99 122 53 b 69 -121 114 7 69 -47 b 119 -246 69 -176 90 -217 b 386 -328 188 -314 293 -328 b 669 -246 485 -328 601 -312 b 729 -104 703 -212 729 -165 z m 533 471 b 374 314 533 382 469 314 b 214 471 274 314 214 382 b 374 625 214 560 278 625 b 533 471 474 625 533 560 z m 614 -104 b 585 -176 614 -135 603 -158 b 393 -226 540 -221 453 -226 b 206 -178 332 -226 251 -224 b 176 -104 188 -160 176 -136 b 265 7 176 -50 218 -8 l 393 7 b 614 -104 482 7 614 15 z "},"h":{"ha":815,"x_min":0,"x_max":0,"o":"m 697 0 l 697 463 b 453 721 697 625 613 721 b 247 610 374 721 289 682 l 247 1003 l 129 1003 l 129 0 l 247 0 l 247 326 b 272 506 247 381 249 454 b 425 614 303 569 357 614 b 579 446 536 614 579 551 l 579 0 z "},"i":{"ha":379,"x_min":0,"x_max":0,"o":"m 258 864 l 258 1003 l 121 1003 l 121 864 z m 250 0 l 250 703 l 129 703 l 129 0 z "},"j":{"ha":393,"x_min":0,"x_max":0,"o":"m 272 864 l 272 1003 l 135 1003 l 135 864 z m 264 -99 l 264 703 l 146 703 l 146 -100 b 67 -189 146 -147 119 -189 b -21 -182 38 -189 8 -187 l -21 -283 b 71 -297 14 -294 35 -297 b 264 -99 204 -297 264 -221 z "},"k":{"ha":757,"x_min":0,"x_max":0,"o":"m 735 0 l 458 425 l 708 703 l 565 703 l 247 349 l 247 1003 l 129 1003 l 129 0 l 247 0 l 247 189 l 382 339 l 601 0 z "},"l":{"ha":404,"x_min":0,"x_max":0,"o":"m 356 0 l 356 100 b 307 99 356 100 346 99 b 243 171 258 99 243 124 l 243 1003 l 125 1003 l 125 164 b 272 -8 125 53 169 -8 b 356 0 329 -8 356 0 z "},"m":{"ha":1219,"x_min":0,"x_max":0,"o":"m 1101 0 l 1101 463 b 867 721 1101 618 1026 721 b 650 588 778 721 688 675 b 440 721 619 674 544 721 b 243 603 361 721 281 682 l 232 703 l 129 703 l 129 0 l 247 0 l 247 374 b 294 551 247 432 260 507 b 414 614 324 589 364 614 b 556 447 526 614 556 546 l 556 0 l 674 0 l 674 374 b 733 567 674 447 686 518 b 840 614 761 596 796 614 b 983 447 951 614 983 546 l 983 0 z "},"n":{"ha":813,"x_min":0,"x_max":0,"o":"m 697 0 l 697 463 b 454 721 697 625 614 721 b 242 597 375 721 278 678 l 232 703 l 129 703 l 129 0 l 247 0 l 247 326 b 272 506 247 381 249 454 b 425 614 303 569 357 614 b 579 446 536 614 579 551 l 579 0 z "},"o":{"ha":775,"x_min":0,"x_max":0,"o":"m 700 351 b 600 639 700 463 676 564 b 388 721 549 689 476 721 b 175 639 299 721 226 689 b 75 351 99 564 75 463 b 175 64 75 240 99 139 b 388 -18 226 14 299 -18 b 600 64 476 -18 549 14 b 700 351 676 139 700 240 z m 579 351 b 514 133 579 269 564 185 b 388 83 485 104 443 83 b 261 133 332 83 290 104 b 196 351 211 185 196 269 b 261 569 196 433 211 518 b 388 619 290 599 332 619 b 514 569 443 619 485 599 b 579 351 564 518 579 433 z "},"p":{"ha":826,"x_min":0,"x_max":0,"o":"m 751 351 b 650 643 751 468 717 575 b 451 719 604 690 538 719 b 242 610 372 719 282 681 l 233 701 l 129 701 l 129 -301 l 247 -301 l 247 81 b 451 -19 285 17 375 -19 b 644 51 533 -19 599 8 b 751 351 715 119 751 231 z m 631 350 b 432 81 631 221 589 81 b 318 126 381 81 346 101 b 240 350 260 178 240 263 b 318 574 240 438 260 522 b 432 619 346 599 381 619 b 631 350 589 619 631 479 z "},"q":{"ha":826,"x_min":0,"x_max":0,"o":"m 697 -301 l 697 701 l 593 701 l 585 610 b 375 719 544 681 454 719 b 176 643 289 719 222 690 b 75 351 110 575 75 468 b 182 51 75 231 111 119 b 375 -19 228 8 293 -19 b 579 81 451 -19 542 17 l 579 -301 z m 586 350 b 508 126 586 263 567 178 b 394 81 481 101 446 81 b 196 350 238 81 196 221 b 394 619 196 479 238 619 b 508 574 446 619 481 599 b 586 350 567 522 586 438 z "},"r":{"ha":533,"x_min":0,"x_max":0,"o":"m 508 588 l 508 703 b 453 707 490 706 471 707 b 243 579 364 707 279 665 l 233 703 l 129 703 l 129 0 l 246 0 l 246 313 b 310 538 246 386 253 483 b 443 593 342 568 388 593 b 508 588 464 593 488 592 z "},"s":{"ha":724,"x_min":0,"x_max":0,"o":"m 650 204 b 471 399 650 310 571 382 b 301 422 396 411 340 417 b 207 514 243 431 207 456 b 278 608 207 553 233 590 b 360 622 311 622 332 622 b 475 585 407 622 446 611 b 515 497 496 567 514 533 l 633 497 b 583 632 633 554 614 594 b 360 721 536 692 453 721 b 153 643 272 721 199 690 b 94 506 121 611 94 560 b 267 317 94 399 161 333 b 425 296 315 310 394 300 b 535 196 497 286 535 249 b 500 119 535 164 519 135 b 371 81 464 89 419 81 b 244 113 326 81 276 89 b 188 222 211 138 189 174 l 69 222 b 138 61 69 163 94 103 b 365 -18 197 3 278 -18 b 594 61 457 -18 540 6 b 650 204 628 96 650 143 z "},"t":{"ha":535,"x_min":0,"x_max":0,"o":"m 493 10 l 493 111 b 372 99 493 111 422 99 b 278 194 307 99 278 126 l 278 601 l 486 601 l 486 703 l 278 703 l 278 910 l 160 882 l 160 703 l 24 703 l 24 601 l 160 601 l 160 181 b 353 -10 160 86 201 -10 b 493 10 418 -10 461 1 z "},"u":{"ha":808,"x_min":0,"x_max":0,"o":"m 679 0 l 679 703 l 561 703 l 561 338 b 503 143 561 265 547 189 b 386 90 472 111 433 90 b 236 258 275 90 236 153 l 236 703 l 118 703 l 118 242 b 358 -17 118 79 199 -17 b 567 107 440 -17 531 26 l 576 0 z "},"v":{"ha":675,"x_min":0,"x_max":0,"o":"m 658 703 l 539 703 l 343 139 l 140 703 l 17 703 l 276 0 l 404 0 z "},"w":{"ha":1065,"x_min":0,"x_max":0,"o":"m 1013 703 l 897 703 l 761 172 l 585 694 l 483 694 l 304 172 l 169 703 l 53 703 l 233 0 l 346 0 l 533 538 l 717 0 l 831 0 z "},"x":{"ha":692,"x_min":0,"x_max":0,"o":"m 668 0 l 424 358 l 661 703 l 525 703 l 349 438 l 165 703 l 26 703 l 263 358 l 24 0 l 158 0 l 342 276 l 526 0 z "},"y":{"ha":692,"x_min":0,"x_max":0,"o":"m 678 703 l 554 703 l 357 149 l 150 703 l 17 703 l 297 0 l 253 -118 b 147 -189 233 -171 197 -189 b 64 -178 101 -189 64 -178 l 64 -281 b 171 -294 74 -283 113 -294 b 361 -144 276 -294 328 -235 z "},"z":{"ha":696,"x_min":0,"x_max":0,"o":"m 629 0 l 629 103 l 218 103 l 625 599 l 625 703 l 74 703 l 74 600 l 482 600 l 74 104 l 74 0 z "},"{":{"ha":485,"x_min":0,"x_max":0,"o":"m 471 -165 l 471 -78 l 435 -78 b 313 76 338 -78 313 -8 l 313 300 b 182 447 313 379 256 429 l 182 450 b 313 600 264 465 313 514 l 313 824 b 433 965 313 917 333 965 l 469 965 l 469 1053 l 433 1053 b 217 815 261 1053 217 974 l 217 601 b 76 493 217 532 133 500 l 76 393 b 217 288 140 388 217 364 l 217 71 b 433 -165 217 -81 269 -165 z "},"|":{"ha":374,"x_min":0,"x_max":0,"o":"m 235 -165 l 235 1053 l 139 1053 l 139 -165 z "},"}":{"ha":485,"x_min":0,"x_max":0,"o":"m 408 393 l 408 493 b 268 601 351 500 268 532 l 268 815 b 51 1053 268 974 224 1053 l 15 1053 l 15 965 l 51 965 b 172 824 151 965 172 917 l 172 600 b 303 450 172 514 221 465 l 303 447 b 172 300 229 429 172 379 l 172 76 b 50 -78 172 -8 147 -78 l 14 -78 l 14 -165 l 51 -165 b 268 71 215 -165 268 -81 l 268 288 b 408 393 268 365 344 388 z "},"~":{"ha":888,"x_min":0,"x_max":0,"o":"m 783 432 l 714 511 b 579 444 653 449 617 444 b 525 456 561 444 543 449 b 419 501 490 468 456 488 b 308 525 383 515 347 525 b 104 417 242 525 190 507 l 172 339 b 307 407 233 401 269 407 b 417 371 346 407 382 388 b 579 324 471 344 528 324 b 783 432 646 324 696 342 z "},"€":{"ha":814,"x_min":0,"x_max":0,"o":"m 793 63 l 747 163 b 540 93 696 122 631 93 b 347 178 465 93 399 121 b 275 343 304 225 283 283 l 550 343 l 588 428 l 268 428 b 267 482 267 446 267 464 b 268 538 267 500 267 519 l 626 538 l 664 622 l 275 622 b 347 789 285 683 304 742 b 540 874 399 846 465 874 b 747 804 631 874 696 844 l 793 904 b 540 985 733 950 657 985 b 268 872 428 985 339 944 b 151 622 197 800 164 714 l 42 622 l 42 538 l 144 538 b 143 483 143 519 143 501 b 144 428 143 465 143 446 l 42 428 l 42 343 l 151 343 b 268 94 164 253 197 167 b 540 -18 339 22 428 -18 b 793 63 657 -18 733 17 z "},"‚":{"ha":388,"x_min":0,"x_max":0,"o":"m 283 -3 l 283 160 l 114 160 l 114 -3 l 200 -3 b 111 -156 200 -82 183 -124 l 147 -221 b 283 -3 249 -178 283 -106 z "},"ƒ":{"ha":732,"x_min":0,"x_max":0,"o":"m 665 882 l 665 986 b 561 997 640 992 614 997 b 356 806 465 997 379 925 l 317 607 l 154 607 l 154 503 l 296 503 l 210 71 b 92 -53 190 -28 138 -53 b 11 -44 46 -53 21 -46 l 11 -149 b 115 -160 36 -154 63 -160 b 321 32 211 -160 297 -87 l 414 503 l 631 503 l 631 607 l 435 607 l 467 767 b 585 890 486 865 539 890 b 665 882 631 890 656 883 z "},"„":{"ha":683,"x_min":0,"x_max":0,"o":"m 565 -1 l 565 161 l 396 161 l 396 -1 l 482 -1 b 393 -154 482 -81 465 -122 l 429 -219 b 565 -1 531 -176 565 -104 z m 290 -1 l 290 161 l 121 161 l 121 -1 l 207 -1 b 118 -154 207 -81 190 -122 l 154 -219 b 290 -1 256 -176 290 -104 z "},"…":{"ha":1118,"x_min":0,"x_max":0,"o":"m 1011 0 l 1011 160 l 851 160 l 851 0 z m 638 0 l 638 160 l 479 160 l 479 0 z m 265 0 l 265 160 l 107 160 l 107 0 z "},"†":{"ha":786,"x_min":0,"x_max":0,"o":"m 710 601 l 710 703 l 451 703 l 451 985 l 336 985 l 336 703 l 76 703 l 76 601 l 336 601 l 336 -174 l 451 -174 l 451 601 z "},"‡":{"ha":786,"x_min":0,"x_max":0,"o":"m 710 108 l 710 210 l 450 210 l 450 601 l 710 601 l 710 703 l 450 703 l 450 985 l 449 985 l 338 985 l 336 985 l 336 703 l 76 703 l 76 601 l 336 601 l 336 210 l 76 210 l 76 108 l 336 108 l 336 -174 l 338 -174 l 449 -174 l 450 -174 l 450 108 z "},"ˆ":{"ha":493,"x_min":0,"x_max":0,"o":"m 458 829 l 285 1011 l 208 1011 l 35 829 l 97 767 l 246 926 l 396 767 z "},"‰":{"ha":1632,"x_min":0,"x_max":0,"o":"m 1563 233 b 1522 394 1563 293 1553 350 b 1347 488 1488 446 1431 488 b 1174 394 1264 488 1208 446 b 1133 233 1143 350 1133 293 b 1174 74 1133 174 1143 118 b 1347 -18 1208 22 1264 -18 b 1522 74 1431 -18 1488 22 b 1563 233 1553 118 1563 174 z m 1063 233 b 1022 394 1063 293 1053 350 b 849 488 988 446 932 488 b 674 394 765 488 708 446 b 633 233 643 350 633 293 b 674 74 633 174 643 118 b 849 -18 708 22 765 -18 b 1022 74 932 -18 988 22 b 1063 233 1053 118 1063 174 z m 979 951 l 903 1006 l 188 28 l 263 -29 z m 514 750 b 472 911 514 810 503 867 b 299 1003 438 963 382 1003 b 124 911 215 1003 158 963 b 83 750 93 867 83 810 b 124 590 83 690 93 635 b 299 499 158 539 215 499 b 472 590 382 499 438 539 b 514 750 503 635 514 690 z m 1461 233 b 1424 101 1461 179 1453 132 b 1347 69 1407 83 1383 69 b 1271 101 1311 69 1288 83 b 1233 233 1242 132 1233 179 b 1271 367 1233 288 1242 336 b 1347 399 1288 385 1311 399 b 1424 367 1383 399 1407 385 b 1461 233 1453 336 1461 288 z m 961 233 b 924 101 961 179 953 132 b 849 69 907 83 885 69 b 772 101 813 69 789 83 b 733 233 743 132 733 179 b 772 367 733 288 743 336 b 849 399 789 385 813 399 b 924 367 885 399 907 385 b 961 233 953 336 961 288 z m 413 750 b 374 618 413 696 403 649 b 299 586 357 600 335 586 b 222 618 263 586 239 600 b 183 750 193 649 183 696 b 222 883 183 804 193 853 b 299 915 239 901 263 915 b 374 883 335 915 357 901 b 413 750 403 853 413 804 z "},"Š":{"ha":882,"x_min":0,"x_max":0,"o":"m 657 1236 l 594 1299 l 446 1139 l 296 1299 l 233 1236 l 407 1054 l 483 1054 z m 813 271 b 539 550 813 426 703 526 b 375 575 485 558 431 568 b 228 714 301 585 228 625 b 268 821 228 758 243 792 b 443 889 311 869 372 889 b 617 821 519 889 579 864 b 665 697 644 789 663 746 l 794 697 b 700 908 792 781 760 851 b 444 1003 635 971 540 1003 b 186 906 342 1003 254 969 b 100 711 133 856 100 785 b 363 450 100 554 215 472 b 518 426 415 442 464 435 b 683 268 635 408 683 344 b 633 153 683 215 664 181 b 450 96 589 111 525 96 b 261 157 381 96 306 114 b 192 313 221 196 192 254 l 63 313 b 168 76 63 219 106 135 b 450 -18 235 15 331 -18 b 729 81 556 -18 661 14 b 813 271 778 128 813 189 z "},"‹":{"ha":442,"x_min":0,"x_max":0,"o":"m 365 150 l 210 415 l 364 681 l 290 733 l 63 414 l 290 94 z "},"Œ":{"ha":1365,"x_min":0,"x_max":0,"o":"m 1294 0 l 1294 115 l 825 115 l 825 467 l 1226 467 l 1226 583 l 825 583 l 825 869 l 1294 869 l 1294 985 l 711 985 l 711 892 b 451 1004 660 957 569 1004 b 189 896 331 1004 257 965 b 74 493 89 793 74 650 b 189 89 74 336 89 192 b 451 -18 257 19 331 -18 b 711 90 569 -18 657 22 l 711 0 z m 704 493 b 619 156 704 367 696 232 b 451 93 582 118 529 93 b 276 165 368 93 314 122 b 199 493 208 243 199 372 b 289 831 199 619 210 754 b 451 892 326 865 378 892 b 629 818 536 892 592 861 b 704 493 696 740 704 613 z "},"‘":{"ha":381,"x_min":0,"x_max":0,"o":"m 276 933 l 240 999 b 104 781 139 956 104 883 l 104 618 l 274 618 l 274 781 l 188 781 b 276 933 188 860 204 901 z "},"’":{"ha":367,"x_min":0,"x_max":0,"o":"m 269 817 l 269 979 l 100 979 l 100 817 l 186 817 b 97 664 186 738 169 696 l 133 599 b 269 817 235 642 269 714 z "},"“":{"ha":656,"x_min":0,"x_max":0,"o":"m 558 933 l 522 999 b 386 781 421 956 386 883 l 386 618 l 556 618 l 556 781 l 469 781 b 558 933 469 860 486 901 z m 283 933 l 247 999 b 111 781 146 956 111 883 l 111 618 l 281 618 l 281 781 l 194 781 b 283 933 194 860 211 901 z "},"”":{"ha":642,"x_min":0,"x_max":0,"o":"m 551 814 l 551 976 l 382 976 l 382 814 l 468 814 b 379 661 468 735 451 693 l 415 596 b 551 814 517 639 551 711 z m 276 814 l 276 976 l 107 976 l 107 814 l 193 814 b 104 661 193 735 176 693 l 140 596 b 276 814 242 639 276 711 z "},"•":{"ha":604,"x_min":0,"x_max":0,"o":"m 479 406 b 303 588 479 506 401 588 b 125 406 204 588 125 506 b 303 224 125 306 204 224 b 479 406 401 224 479 306 z "},"–":{"ha":910,"x_min":0,"x_max":0,"o":"m 813 364 l 813 474 l 97 474 l 97 364 z "},"—":{"ha":1563,"x_min":0,"x_max":0,"o":"m 1465 364 l 1465 474 l 97 474 l 97 364 z "},"˜":{"ha":500,"x_min":0,"x_max":0,"o":"m 481 899 l 429 957 b 342 915 408 933 378 915 b 256 946 310 915 283 931 b 160 976 228 961 199 976 b 18 901 96 976 54 942 l 72 843 b 158 882 97 868 121 882 b 240 853 189 882 215 867 b 340 824 268 838 299 824 b 481 899 406 824 450 860 z "},"™":{"ha":1163,"x_min":0,"x_max":0,"o":"m 1058 442 l 1058 985 l 914 985 l 785 593 l 656 985 l 507 985 l 507 442 l 601 442 l 601 885 l 749 456 l 817 456 l 964 886 l 964 442 z m 431 899 l 431 985 l 28 985 l 28 899 l 182 899 l 182 442 l 276 442 l 276 899 z "},"š":{"ha":724,"x_min":0,"x_max":0,"o":"m 557 932 l 501 988 l 368 844 l 232 988 l 176 932 l 332 768 l 401 768 z m 650 204 b 471 399 650 310 571 382 b 301 422 396 411 340 417 b 207 514 243 431 207 456 b 278 608 207 553 233 590 b 360 622 311 622 332 622 b 475 585 407 622 446 611 b 515 497 496 567 514 533 l 633 497 b 583 632 633 554 614 594 b 360 721 536 692 453 721 b 153 643 272 721 199 690 b 94 506 121 611 94 560 b 267 317 94 399 161 333 b 425 296 315 310 394 300 b 535 196 497 286 535 249 b 500 119 535 164 519 135 b 371 81 464 89 419 81 b 244 113 326 81 276 89 b 188 222 211 138 189 174 l 69 222 b 138 61 69 163 94 103 b 365 -18 197 3 278 -18 b 594 61 457 -18 540 6 b 650 204 628 96 650 143 z "},"›":{"ha":442,"x_min":0,"x_max":0,"o":"m 379 414 l 151 733 l 78 681 l 232 415 l 76 150 l 151 94 z "},"œ":{"ha":1235,"x_min":0,"x_max":0,"o":"m 1165 318 l 1165 356 b 1110 593 1165 457 1153 528 b 867 721 1060 669 986 721 b 628 601 758 721 672 674 l 621 590 b 588 635 610 608 600 622 b 378 721 538 686 467 721 b 168 636 289 721 218 688 b 75 349 93 560 75 460 b 169 63 75 238 94 139 b 378 -22 219 11 289 -22 b 588 61 467 -22 538 10 b 624 110 600 74 611 90 b 872 -21 674 25 764 -21 b 1063 42 954 -21 1011 -1 b 1154 206 1115 86 1144 136 l 1036 206 b 871 79 1018 118 939 79 b 708 174 789 79 736 119 b 681 318 685 219 681 271 z m 1044 411 l 682 411 b 865 624 683 526 747 624 b 994 567 925 624 967 599 b 1044 411 1028 528 1043 475 z m 565 349 b 513 139 565 269 553 192 b 378 76 485 103 444 76 b 256 128 321 76 283 97 b 193 349 207 181 193 265 b 264 579 193 436 207 528 b 378 622 292 604 326 622 b 500 574 435 622 472 601 b 565 349 551 521 565 435 z "},"Ÿ":{"ha":786,"x_min":0,"x_max":0,"o":""},"¡":{"ha":460,"x_min":0,"x_max":0,"o":"m 279 550 l 279 701 l 132 701 l 132 550 z m 274 -283 l 274 28 l 244 403 l 164 403 l 132 28 l 132 -283 z "},"¢":{"ha":778,"x_min":0,"x_max":0,"o":"m 689 376 l 569 376 b 522 268 564 331 547 294 b 440 225 501 246 474 232 l 440 750 b 517 711 471 744 497 731 b 567 597 543 685 561 646 l 686 597 b 603 782 681 674 650 736 b 440 856 561 821 507 849 l 440 985 l 356 985 l 356 854 b 146 725 257 843 193 794 b 89 488 103 661 89 579 b 147 249 89 396 104 313 b 356 121 194 181 258 132 l 356 0 l 440 0 l 440 119 b 607 194 508 126 565 153 b 689 376 654 240 683 301 z m 356 225 b 210 488 239 250 210 368 b 356 750 210 606 240 725 z "},"£":{"ha":778,"x_min":0,"x_max":0,"o":"m 754 218 l 638 218 b 531 106 636 150 601 106 l 242 106 l 242 108 b 301 215 288 121 301 174 l 301 460 l 525 460 l 525 561 l 301 561 l 301 713 b 449 882 301 807 343 882 b 594 736 539 882 594 822 l 713 736 b 451 986 713 876 610 986 b 182 713 276 986 182 854 l 182 561 l 71 561 l 71 460 l 182 460 l 182 221 b 72 110 182 149 144 111 l 72 0 l 526 0 b 754 218 671 0 754 69 z "},"¤":{"ha":778,"x_min":0,"x_max":0,"o":"m 754 72 l 646 167 b 704 353 682 218 704 286 b 646 539 704 419 682 488 l 754 629 l 664 722 l 568 614 b 389 669 517 650 457 669 b 208 614 321 669 261 650 l 115 721 l 24 629 l 133 539 b 75 353 97 488 75 419 b 133 167 75 286 97 218 l 24 72 l 114 -17 l 210 92 b 389 35 263 56 321 35 b 568 92 457 35 517 56 l 665 -17 z m 590 353 b 389 143 590 236 519 143 b 188 353 258 143 188 244 b 389 561 188 472 253 561 b 590 353 514 561 590 468 z "},"¥":{"ha":778,"x_min":0,"x_max":0,"o":"m 757 965 l 629 965 l 393 536 l 151 965 l 21 965 l 268 531 l 100 531 l 100 446 l 326 446 l 326 319 l 100 319 l 100 235 l 326 235 l 326 0 l 450 0 l 450 235 l 692 235 l 692 319 l 450 319 l 450 446 l 692 446 l 692 531 l 508 531 z "},"¦":{"ha":383,"x_min":0,"x_max":0,"o":"m 244 625 l 244 1054 l 139 1054 l 139 625 z m 244 -69 l 244 358 l 139 358 l 139 -69 z "},"§":{"ha":781,"x_min":0,"x_max":0,"o":"m 697 226 b 607 414 697 301 672 360 l 326 651 b 268 765 290 682 268 718 b 400 888 268 840 326 888 b 500 847 439 888 478 872 b 536 739 528 817 536 778 l 651 739 b 588 913 651 807 629 868 b 400 988 542 961 476 988 b 218 918 326 988 263 961 b 153 763 179 881 153 828 b 210 611 153 701 174 653 b 90 424 150 575 90 507 b 181 236 90 349 115 290 l 461 -1 b 519 -115 497 -32 519 -68 b 388 -237 519 -190 461 -237 b 288 -197 349 -237 310 -222 b 251 -89 260 -167 251 -128 l 136 -89 b 200 -262 136 -157 158 -218 b 388 -337 246 -311 311 -337 b 569 -271 461 -337 525 -314 b 635 -112 608 -233 635 -178 b 578 39 635 -51 614 -3 b 697 226 638 75 697 143 z m 533 328 b 510 103 607 265 599 150 l 254 322 b 278 547 181 385 189 500 z "},"¨":{"ha":403,"x_min":0,"x_max":0,"o":"m 388 832 l 388 960 l 260 960 l 260 832 z m 143 832 l 143 960 l 15 960 l 15 832 z "},"©":{"ha":1192,"x_min":0,"x_max":0,"o":"m 1097 493 b 596 1003 1097 778 883 1003 b 94 492 308 1003 94 776 b 596 -18 94 207 308 -18 b 1097 493 883 -18 1097 208 z m 1004 493 b 596 71 1004 250 842 71 b 188 492 350 71 188 249 b 596 914 188 735 350 914 b 1004 493 842 914 1004 736 z m 835 417 l 729 417 b 604 307 719 342 667 307 b 500 356 561 307 524 326 b 460 492 471 392 460 442 b 501 628 460 542 472 592 b 604 676 525 657 561 676 b 729 567 667 676 719 642 l 835 567 b 604 767 825 683 732 767 b 356 492 446 767 356 639 b 408 317 356 422 369 372 b 604 217 450 257 518 217 b 835 417 728 217 824 297 z "},"ª":{"ha":672,"x_min":0,"x_max":0,"o":"m 583 438 l 583 508 b 558 506 583 508 567 506 b 531 539 542 506 531 511 l 531 797 b 517 881 531 828 528 856 b 326 985 492 940 431 985 b 114 810 214 985 117 932 l 207 810 b 232 876 207 838 215 860 b 326 907 250 894 279 907 b 413 881 369 907 396 896 b 438 800 436 860 438 826 l 438 764 l 281 754 b 88 585 133 746 88 654 b 274 418 88 500 150 418 b 442 501 347 418 410 450 b 522 424 444 458 475 424 b 583 438 544 424 563 426 z m 438 660 b 393 540 438 617 425 572 b 288 499 365 511 328 499 b 185 588 213 499 185 542 b 299 681 185 653 244 678 l 438 689 z "},"«":{"ha":764,"x_min":0,"x_max":0,"o":"m 688 150 l 532 415 l 686 681 l 613 733 l 385 414 l 613 94 z m 365 150 l 210 415 l 364 681 l 290 733 l 63 414 l 290 94 z "},"¬":{"ha":868,"x_min":0,"x_max":0,"o":"m 750 138 l 750 474 l 76 474 l 76 367 l 642 367 l 642 138 z "},"−":{"ha":896,"x_min":0,"x_max":0,"o":"m 813 364 l 813 474 l 97 474 l 97 364 z "},"®":{"ha":1192,"x_min":0,"x_max":0,"o":"m 1097 493 b 596 1003 1097 778 883 1003 b 94 492 308 1003 94 776 b 596 -18 94 207 308 -18 b 1097 493 883 -18 1097 208 z m 1004 493 b 596 71 1004 250 842 71 b 188 492 350 71 188 249 b 596 914 188 735 350 914 b 1004 493 842 914 1004 736 z m 810 235 l 711 446 b 807 600 776 475 807 531 b 618 767 807 708 719 767 l 422 767 l 422 235 l 515 235 l 515 431 l 619 431 l 708 235 z m 710 600 b 618 517 710 542 674 517 l 514 517 l 514 681 l 618 681 b 710 600 668 681 710 654 z "},"¯":{"ha":411,"x_min":0,"x_max":0,"o":"m 399 844 l 399 939 l 13 939 l 13 844 z "},"°":{"ha":640,"x_min":0,"x_max":0,"o":"m 550 775 b 319 1003 550 908 450 1003 b 90 775 189 1003 90 908 b 319 547 90 642 189 547 b 550 775 450 547 550 642 z m 446 775 b 319 646 446 699 392 646 b 194 775 247 646 194 699 b 319 904 194 851 247 904 b 446 775 392 904 446 851 z "},"±":{"ha":790,"x_min":0,"x_max":0,"o":"m 700 461 l 700 558 l 444 558 l 444 815 l 347 815 l 347 558 l 90 558 l 90 461 l 347 461 l 347 201 l 444 201 l 444 461 z m 700 0 l 700 96 l 90 96 l 90 0 z "},"²":{"ha":572,"x_min":0,"x_max":0,"o":"m 482 476 l 482 568 l 249 568 l 361 663 b 468 832 421 713 468 751 b 286 994 468 936 386 994 b 90 810 175 994 93 925 l 189 810 b 283 907 192 868 222 907 b 360 872 317 907 344 897 b 371 838 367 864 371 853 b 317 744 371 796 349 771 l 101 564 l 101 476 z "},"³":{"ha":575,"x_min":0,"x_max":0,"o":"m 485 621 b 397 736 485 669 450 722 b 475 844 444 747 475 800 b 442 936 475 883 461 913 b 289 996 408 976 353 996 b 143 946 231 996 179 979 b 94 831 114 918 94 882 l 190 831 b 288 918 192 894 244 918 b 375 850 336 918 375 890 b 331 782 375 811 361 790 b 256 776 300 774 286 776 l 256 697 l 294 697 b 386 619 358 697 386 665 b 288 546 386 565 340 546 b 186 640 229 546 188 579 l 90 640 b 132 529 90 594 108 557 b 288 467 168 488 226 467 b 450 525 353 467 411 483 b 485 621 471 549 485 579 z "},"´":{"ha":339,"x_min":0,"x_max":0,"o":"m 319 903 l 257 1001 l 21 831 l 63 765 z "},"µ":{"ha":819,"x_min":0,"x_max":0,"o":"m 690 0 l 690 703 l 572 703 l 572 338 b 514 143 572 265 558 189 b 397 90 483 111 444 90 b 247 258 286 90 247 153 l 247 621 l 247 703 l 129 703 l 129 621 l 129 242 l 129 -278 l 247 -278 l 247 19 b 369 -17 272 0 322 -17 b 578 107 451 -17 542 26 l 588 0 z "},"¶":{"ha":913,"x_min":0,"x_max":0,"o":"m 808 889 l 808 985 l 351 985 b 90 724 207 985 90 868 b 351 461 90 579 207 461 l 351 -174 l 456 -174 l 456 889 l 611 889 l 611 -174 l 713 -174 l 713 889 z "},"·":{"ha":414,"x_min":0,"x_max":0,"o":"m 289 343 l 289 508 l 125 508 l 125 343 z "},"¸":{"ha":242,"x_min":0,"x_max":0,"o":"m 229 -82 l 121 -82 l 11 -269 l 133 -326 z "},"¹":{"ha":431,"x_min":0,"x_max":0,"o":"m 303 479 l 303 985 l 211 985 l 76 892 l 76 782 l 204 869 l 204 479 z "},"º":{"ha":672,"x_min":0,"x_max":0,"o":"m 574 701 b 499 921 574 786 557 863 b 336 985 460 960 404 985 b 175 921 268 985 214 960 b 99 701 117 863 99 786 b 175 481 99 617 117 539 b 336 417 214 442 268 417 b 499 481 404 417 460 442 b 574 701 557 539 574 617 z m 476 701 b 429 536 476 639 467 575 b 336 500 408 514 378 500 b 244 536 294 500 265 514 b 197 701 207 575 197 639 b 244 865 197 764 207 826 b 336 901 265 888 294 901 b 429 865 378 901 408 888 b 476 701 467 826 476 764 z "},"»":{"ha":764,"x_min":0,"x_max":0,"o":"m 701 414 l 474 733 l 400 681 l 554 415 l 399 150 l 474 94 z m 379 414 l 151 733 l 78 681 l 232 415 l 76 150 l 151 94 z "},"¼":{"ha":1194,"x_min":0,"x_max":0,"o":"m 1104 104 l 1104 186 l 1022 186 l 1022 294 l 926 294 l 926 186 l 785 186 l 990 513 l 878 513 l 679 200 l 679 104 l 926 104 l 926 0 l 1022 0 l 1022 104 z m 986 951 l 910 1006 l 194 28 l 269 -29 z m 343 479 l 343 985 l 251 985 l 117 892 l 117 782 l 244 869 l 244 479 z "},"½":{"ha":1263,"x_min":0,"x_max":0,"o":"m 1117 -1 l 1117 90 l 883 90 l 996 185 b 1103 354 1056 235 1103 274 b 921 517 1103 458 1021 517 b 725 332 808 517 728 447 l 824 332 b 918 429 825 390 857 429 b 994 394 951 429 979 418 b 1006 360 1000 385 1006 374 b 951 267 1006 317 983 293 l 736 86 l 736 -1 z m 979 951 l 903 1006 l 188 28 l 263 -29 z m 336 479 l 336 985 l 244 985 l 110 892 l 110 782 l 238 869 l 238 479 z "},"¾":{"ha":1253,"x_min":0,"x_max":0,"o":"m 1163 104 l 1163 186 l 1081 186 l 1081 294 l 985 294 l 985 186 l 843 186 l 1049 513 l 936 513 l 738 200 l 738 104 l 985 104 l 985 0 l 1081 0 l 1081 104 z m 1044 951 l 968 1006 l 253 28 l 328 -29 z m 485 621 b 397 736 485 669 450 722 b 475 844 444 747 475 800 b 442 936 475 883 461 913 b 289 996 408 976 353 996 b 143 946 231 996 179 979 b 94 831 114 918 94 882 l 190 831 b 288 918 192 894 244 918 b 375 850 336 918 375 890 b 331 782 375 811 361 790 b 256 776 300 774 286 776 l 256 697 l 294 697 b 386 619 358 697 386 665 b 288 546 386 565 340 546 b 186 640 229 546 188 579 l 90 640 b 132 529 90 594 108 557 b 288 467 168 488 226 467 b 450 525 353 467 411 483 b 485 621 471 549 485 579 z "},"¿":{"ha":700,"x_min":0,"x_max":0,"o":"m 422 551 l 422 704 l 275 704 l 275 551 z m 644 3 l 519 3 b 333 -196 519 -106 454 -196 b 206 -146 283 -196 236 -178 b 164 -40 179 -118 164 -83 b 249 121 164 33 193 78 b 404 403 358 206 404 254 l 404 442 l 290 442 l 290 407 b 192 217 290 322 281 281 b 42 -39 97 147 42 72 b 333 -303 42 -204 176 -303 b 644 3 538 -303 644 -154 z "},"À":{"ha":863,"x_min":0,"x_max":0,"o":""},"Á":{"ha":863,"x_min":0,"x_max":0,"o":""},"Â":{"ha":863,"x_min":0,"x_max":0,"o":""},"Ã":{"ha":863,"x_min":0,"x_max":0,"o":""},"Ä":{"ha":863,"x_min":0,"x_max":0,"o":""},"Å":{"ha":863,"x_min":0,"x_max":0,"o":"m 851 0 l 522 931 b 599 1069 571 961 599 1014 b 429 1233 599 1154 535 1233 b 261 1069 324 1233 261 1154 b 339 929 261 1014 289 958 l 11 0 l 136 0 l 215 233 l 643 233 l 724 0 z m 513 1069 b 429 985 513 1024 481 985 b 346 1069 378 985 346 1024 b 429 1156 346 1115 378 1156 b 513 1069 481 1156 513 1115 z m 603 350 l 254 350 l 428 861 z "},"Æ":{"ha":1269,"x_min":0,"x_max":0,"o":"m 1199 0 l 1199 117 l 729 117 l 729 468 l 1131 468 l 1131 585 l 729 585 l 729 869 l 1199 869 l 1199 985 l 444 985 l 0 0 l 136 0 l 251 263 l 604 263 l 604 0 z m 604 379 l 303 379 l 521 874 l 604 874 z "},"Ç":{"ha":881,"x_min":0,"x_max":0,"o":""},"È":{"ha":868,"x_min":0,"x_max":0,"o":""},"É":{"ha":868,"x_min":0,"x_max":0,"o":""},"Ê":{"ha":868,"x_min":0,"x_max":0,"o":""},"Ë":{"ha":868,"x_min":0,"x_max":0,"o":""},"Ì":{"ha":404,"x_min":0,"x_max":0,"o":"m 265 0 l 265 985 l 139 985 l 139 0 z m 350 1114 l 113 1285 l 50 1186 l 307 1049 z "},"Í":{"ha":404,"x_min":0,"x_max":0,"o":""},"Î":{"ha":404,"x_min":0,"x_max":0,"o":"m 265 0 l 265 985 l 139 985 l 139 0 z m 414 1108 l 240 1290 l 164 1290 l -10 1108 l 53 1046 l 201 1206 l 351 1046 z "},"Ï":{"ha":404,"x_min":0,"x_max":0,"o":""},"Ð":{"ha":958,"x_min":0,"x_max":0,"o":"m 885 493 b 758 885 885 635 867 782 b 500 985 689 951 596 985 l 157 985 l 157 557 l 56 557 l 56 465 l 157 465 l 157 0 l 500 0 b 758 99 596 0 689 32 b 885 493 865 201 885 351 z m 760 493 b 675 182 760 388 753 261 b 500 114 629 136 564 114 l 281 114 l 281 465 l 483 465 l 483 557 l 281 557 l 281 871 l 500 871 b 675 803 564 871 629 849 b 760 493 753 722 760 599 z "},"Ñ":{"ha":1019,"x_min":0,"x_max":0,"o":""},"Ò":{"ha":931,"x_min":0,"x_max":0,"o":""},"Ó":{"ha":931,"x_min":0,"x_max":0,"o":""},"Ô":{"ha":931,"x_min":0,"x_max":0,"o":""},"Õ":{"ha":931,"x_min":0,"x_max":0,"o":""},"Ö":{"ha":931,"x_min":0,"x_max":0,"o":""},"×":{"ha":947,"x_min":0,"x_max":0,"o":"m 857 106 l 547 414 l 857 722 l 782 797 l 472 489 l 165 797 l 90 722 l 399 414 l 90 106 l 165 31 l 474 339 l 782 31 z "},"Ø":{"ha":931,"x_min":0,"x_max":0,"o":"m 857 492 b 731 897 857 649 838 793 b 699 925 721 907 710 917 l 747 1032 l 671 1067 l 626 968 b 465 1003 576 992 521 1003 b 200 897 367 1003 271 967 b 74 492 93 793 74 649 b 200 86 74 335 93 190 b 217 71 206 81 211 76 l 157 -60 l 235 -96 l 289 22 b 465 -19 343 -6 403 -19 b 731 86 564 -19 660 17 b 857 492 838 190 857 335 z m 729 492 b 644 172 729 389 725 256 b 465 99 597 124 532 99 b 339 132 421 99 376 110 l 646 810 b 729 492 725 726 729 593 z m 576 860 l 271 190 b 201 492 206 274 201 396 b 286 811 201 594 206 728 b 465 885 333 860 399 885 b 576 860 504 885 542 876 z "},"Ù":{"ha":942,"x_min":0,"x_max":0,"o":""},"Ú":{"ha":942,"x_min":0,"x_max":0,"o":""},"Û":{"ha":942,"x_min":0,"x_max":0,"o":""},"Ü":{"ha":942,"x_min":0,"x_max":0,"o":""},"Ý":{"ha":786,"x_min":0,"x_max":0,"o":"m 551 1176 l 489 1278 l 253 1107 l 293 1040 z m 786 985 l 654 985 l 397 517 l 139 985 l 0 985 l 331 400 l 331 0 l 456 0 l 456 400 z "},"Þ":{"ha":843,"x_min":0,"x_max":0,"o":"m 801 504 b 726 713 801 590 774 661 b 478 801 674 769 593 801 l 264 801 l 264 986 l 139 986 l 139 0 l 264 0 l 264 199 l 479 199 b 719 281 588 199 667 228 b 801 504 772 333 801 408 z m 674 504 b 476 311 674 376 619 311 l 264 311 l 264 689 l 475 689 b 674 504 614 689 674 621 z "},"ß":{"ha":844,"x_min":0,"x_max":0,"o":"m 782 289 b 564 549 782 418 697 532 b 715 761 654 572 715 660 b 438 1017 715 913 607 1017 b 154 703 260 1017 154 900 l 35 703 l 35 597 l 153 597 l 153 0 l 272 0 l 272 699 b 438 917 272 822 317 917 b 594 761 540 917 594 853 b 438 594 594 667 524 594 l 399 594 l 399 492 l 438 492 b 660 289 561 492 660 439 b 450 94 660 154 568 94 b 357 101 419 94 388 96 l 357 3 b 474 -8 394 -6 435 -8 b 782 289 651 -8 782 101 z "},"à":{"ha":776,"x_min":0,"x_max":0,"o":"m 718 7 l 718 94 b 688 90 718 94 700 90 b 649 138 664 90 649 100 l 649 478 b 628 586 649 518 642 554 b 381 721 594 663 517 721 b 164 646 294 721 211 696 b 103 499 128 608 104 563 l 218 499 b 253 583 218 533 231 561 b 381 625 276 607 317 625 b 496 589 438 625 472 611 b 532 482 528 560 532 517 l 532 431 l 318 418 b 68 199 126 407 68 289 b 310 -18 68 90 149 -18 b 536 97 408 -18 496 26 l 539 97 b 640 -10 539 38 578 -10 b 718 7 669 -10 693 -6 z m 532 297 b 472 138 532 239 514 181 b 328 81 435 99 382 81 b 189 201 228 81 189 139 b 343 328 189 290 272 324 l 532 339 z m 236 908 l 299 1007 l 535 835 l 493 769 z "},"á":{"ha":776,"x_min":0,"x_max":0,"o":""},"â":{"ha":776,"x_min":0,"x_max":0,"o":""},"ã":{"ha":776,"x_min":0,"x_max":0,"o":""},"ä":{"ha":776,"x_min":0,"x_max":0,"o":""},"å":{"ha":776,"x_min":0,"x_max":0,"o":""},"æ":{"ha":1176,"x_min":0,"x_max":0,"o":"m 1107 319 l 1107 356 b 1053 597 1107 458 1096 532 b 815 721 1003 674 935 721 b 596 619 711 721 642 683 b 371 724 547 692 453 724 b 96 499 236 724 103 660 l 211 499 b 369 625 217 586 281 625 b 518 489 457 625 518 583 l 518 414 l 293 411 b 68 201 174 410 68 329 b 128 53 68 139 92 90 b 321 -19 174 7 240 -19 b 574 114 444 -19 528 33 b 822 -21 617 25 711 -21 b 1006 39 904 -21 954 -4 b 1096 206 1058 83 1086 136 l 979 206 b 821 78 960 118 889 78 b 632 318 679 78 631 197 z m 988 411 l 635 411 b 693 574 635 475 654 533 b 814 625 722 604 761 625 b 942 568 876 625 915 601 b 988 411 974 529 986 476 z m 522 325 b 465 133 522 250 525 193 b 319 82 429 97 374 82 b 188 203 246 82 188 125 b 321 324 188 279 249 324 z "},"ç":{"ha":739,"x_min":0,"x_max":0,"o":"m 675 236 l 556 236 b 508 132 550 190 533 158 b 389 85 481 103 438 85 b 267 131 335 85 297 104 b 196 351 211 178 196 265 b 267 572 196 438 211 525 b 389 618 297 599 335 618 b 503 575 435 618 475 601 b 553 465 529 549 547 514 l 672 465 b 589 646 667 542 636 600 b 389 721 540 693 472 721 b 133 589 263 721 183 663 b 75 351 96 533 75 457 b 133 114 75 246 96 169 b 390 -18 183 40 264 -18 b 593 58 476 -18 543 10 b 675 236 640 104 669 161 z m 468 -86 l 364 -86 l 257 -268 l 376 -324 z "},"è":{"ha":765,"x_min":0,"x_max":0,"o":"m 696 383 b 607 631 697 478 664 568 b 393 721 556 686 483 721 b 128 574 271 721 178 658 b 74 349 89 508 74 433 b 161 88 74 249 103 156 b 394 -18 215 24 296 -18 b 574 35 461 -18 524 1 b 682 208 631 74 672 139 l 567 208 b 525 132 557 171 544 151 b 394 86 496 101 450 86 b 265 136 340 86 297 104 b 197 313 222 179 197 249 l 694 313 z m 575 414 l 200 414 b 393 621 203 517 265 621 b 532 557 456 621 503 596 b 575 414 560 519 575 467 z m 247 910 l 310 1008 l 546 838 l 504 772 z "},"é":{"ha":765,"x_min":0,"x_max":0,"o":""},"ê":{"ha":765,"x_min":0,"x_max":0,"o":""},"ë":{"ha":765,"x_min":0,"x_max":0,"o":""},"ì":{"ha":379,"x_min":0,"x_max":0,"o":"m 247 0 l 247 703 l 128 703 l 128 0 z m 11 901 l 74 1000 l 310 829 l 268 764 z "},"í":{"ha":379,"x_min":0,"x_max":0,"o":"m 231 0 l 231 703 l 111 703 l 111 0 z m 349 903 l 286 1001 l 50 831 l 92 765 z "},"î":{"ha":379,"x_min":0,"x_max":0,"o":"m 253 0 l 253 703 l 133 703 l 133 0 z m 403 829 l 229 1011 l 153 1011 l -21 829 l 42 767 l 190 926 l 340 767 z "},"ï":{"ha":379,"x_min":0,"x_max":0,"o":"m 249 0 l 249 703 l 129 703 l 129 0 z m 376 832 l 376 960 l 249 960 l 249 832 z m 132 832 l 132 960 l 4 960 l 4 832 z "},"ð":{"ha":765,"x_min":0,"x_max":0,"o":"m 690 351 b 619 619 690 454 669 535 l 504 817 l 592 817 l 592 899 l 456 899 l 394 1003 l 271 1003 l 333 899 l 215 899 l 215 817 l 382 817 l 442 715 b 382 721 442 715 403 721 b 169 639 293 721 221 689 b 75 351 93 564 75 463 b 169 64 75 240 93 139 b 382 -18 221 14 293 -18 b 596 64 471 -18 544 14 b 690 351 672 139 690 240 z m 572 351 b 508 133 572 269 558 185 b 382 83 479 104 438 83 b 257 133 326 83 286 104 b 193 351 207 185 193 269 b 257 569 193 433 207 518 b 382 619 286 599 326 619 b 508 569 438 619 479 599 b 572 351 558 518 572 433 z "},"ñ":{"ha":813,"x_min":0,"x_max":0,"o":""},"ò":{"ha":775,"x_min":0,"x_max":0,"o":"m 700 351 b 600 639 700 463 676 564 b 388 721 549 689 476 721 b 175 639 299 721 226 689 b 75 351 99 564 75 463 b 175 64 75 240 99 139 b 388 -18 226 14 299 -18 b 600 64 476 -18 549 14 b 700 351 676 139 700 240 z m 579 351 b 514 133 579 269 564 185 b 388 83 485 104 443 83 b 261 133 332 83 290 104 b 196 351 211 185 196 269 b 261 569 196 433 211 518 b 388 619 290 599 332 619 b 514 569 443 619 485 599 b 579 351 564 518 579 433 z m 243 907 l 306 1006 l 542 835 l 500 769 z "},"ó":{"ha":775,"x_min":0,"x_max":0,"o":""},"ô":{"ha":775,"x_min":0,"x_max":0,"o":""},"õ":{"ha":775,"x_min":0,"x_max":0,"o":""},"ö":{"ha":775,"x_min":0,"x_max":0,"o":""},"÷":{"ha":906,"x_min":0,"x_max":0,"o":"m 529 614 l 529 778 l 371 778 l 371 614 z m 801 363 l 801 471 l 104 471 l 104 363 z m 529 67 l 529 231 l 371 231 l 371 67 z "},"ø":{"ha":775,"x_min":0,"x_max":0,"o":"m 700 351 b 600 639 700 463 676 564 b 571 664 590 649 581 657 l 622 779 l 547 813 l 497 703 b 388 721 464 714 428 721 b 175 639 299 721 226 689 b 75 351 99 564 75 463 b 175 64 75 240 99 139 b 199 43 182 57 190 50 l 146 -72 l 221 -107 l 271 3 b 388 -18 306 -11 344 -18 b 600 64 476 -18 549 14 b 700 351 676 139 700 240 z m 579 351 b 514 133 579 269 564 185 b 388 83 485 104 443 83 b 314 97 360 83 335 89 l 522 560 b 579 351 567 507 579 429 z m 454 608 l 247 150 b 196 351 208 203 196 278 b 261 569 196 433 211 518 b 388 619 290 599 332 619 b 454 608 413 619 435 615 z "},"ù":{"ha":808,"x_min":0,"x_max":0,"o":"m 679 0 l 679 703 l 561 703 l 561 338 b 503 143 561 265 547 189 b 386 90 472 111 433 90 b 236 258 275 90 236 153 l 236 703 l 118 703 l 118 242 b 358 -17 118 79 199 -17 b 567 107 440 -17 531 26 l 576 0 z m 232 906 l 294 1004 l 531 833 l 489 768 z "},"ú":{"ha":808,"x_min":0,"x_max":0,"o":""},"û":{"ha":808,"x_min":0,"x_max":0,"o":""},"ü":{"ha":808,"x_min":0,"x_max":0,"o":""},"ý":{"ha":692,"x_min":0,"x_max":0,"o":"m 529 908 l 464 1008 l 225 829 l 269 764 z m 678 703 l 554 703 l 357 149 l 150 703 l 17 703 l 297 0 l 253 -118 b 147 -189 233 -171 197 -189 b 64 -178 101 -189 64 -178 l 64 -281 b 171 -294 74 -283 113 -294 b 361 -144 276 -294 328 -235 z "},"þ":{"ha":819,"x_min":0,"x_max":0,"o":"m 744 350 b 638 650 744 471 708 582 b 449 721 592 693 531 721 b 247 621 372 721 285 685 l 247 1003 l 129 1003 l 129 -279 l 247 -279 l 247 81 b 449 -19 285 17 372 -19 b 638 51 531 -19 592 8 b 744 350 708 119 744 229 z m 625 350 b 429 81 625 221 586 81 b 318 126 378 81 346 101 b 240 350 260 178 240 263 b 318 575 240 438 260 524 b 429 621 346 600 378 621 b 625 350 586 621 625 479 z "},"ÿ":{"ha":692,"x_min":0,"x_max":0,"o":""},"":{"ha":1001,"x_min":0,"x_max":0,"o":"m 907 456 l 907 560 l 753 560 l 753 719 l 635 719 l 635 560 l 451 560 b 276 722 343 560 276 621 b 324 833 276 765 293 804 b 450 876 353 860 393 876 b 561 867 496 876 529 874 l 561 974 b 442 986 528 982 483 986 b 228 911 347 986 278 957 b 149 719 175 863 149 806 b 294 506 149 622 211 542 b 132 278 201 467 132 378 b 211 82 132 200 160 132 b 446 0 264 31 340 0 l 906 0 l 906 106 l 753 106 l 753 456 z m 635 106 l 449 106 b 294 165 389 106 331 125 b 256 274 271 192 256 229 b 460 456 256 379 343 456 l 635 456 l 635 388 z "},"":{"ha":817,"x_min":0,"x_max":0,"o":"m 749 506 b 619 635 749 579 694 635 l 532 635 l 532 721 b 403 851 532 796 478 851 b 274 721 328 851 274 796 l 274 622 b 197 646 251 638 225 646 b 68 515 122 646 68 590 l 68 171 l 414 171 b 543 300 489 171 543 225 b 519 375 543 326 535 354 l 619 375 b 749 506 694 375 749 431 z m 725 506 b 619 399 725 443 682 399 l 297 399 l 297 721 b 403 828 297 783 340 828 b 510 721 465 828 510 783 l 510 611 l 619 611 b 725 506 682 611 725 568 z "},"≈":{"ha":910,"x_min":0,"x_max":0,"o":"m 806 519 l 731 597 b 593 532 667 535 631 532 b 539 542 575 532 557 535 b 431 585 503 554 467 571 b 317 610 394 599 357 610 b 104 501 247 610 194 590 l 178 425 b 315 492 242 488 278 492 b 433 458 356 492 399 474 b 593 411 489 433 539 411 b 806 519 663 411 715 431 z m 806 256 l 731 332 b 593 267 667 269 631 267 b 539 278 575 267 557 271 b 431 321 503 290 467 307 b 317 344 394 335 357 344 b 104 236 247 344 194 325 l 178 161 b 315 228 242 224 278 228 b 433 193 356 228 399 208 b 593 147 489 168 539 147 b 806 256 663 147 715 167 z "},"←":{"ha":1190,"x_min":0,"x_max":0,"o":"m 1100 374 l 1100 474 l 261 474 l 588 796 l 521 865 l 76 424 l 521 -18 l 588 51 l 261 374 z "},"→":{"ha":1190,"x_min":0,"x_max":0,"o":"m 1114 424 l 671 865 l 604 796 l 929 474 l 90 474 l 90 374 l 929 374 l 604 51 l 671 -18 z "},"↖":{"ha":921,"x_min":0,"x_max":0,"o":"m 851 299 l 258 892 l 717 892 l 717 985 l 90 985 l 90 361 l 188 361 l 188 821 l 781 228 z "},"↗":{"ha":921,"x_min":0,"x_max":0,"o":"m 831 361 l 831 985 l 203 985 l 203 892 l 663 892 l 69 299 l 140 228 l 733 821 l 733 361 z "},"␣":{"ha":1289,"x_min":0,"x_max":0,"o":"m 1183 -101 l 1183 206 l 1119 206 l 1119 -37 l 171 -37 l 171 206 l 106 206 l 106 -101 z "},"∞":{"ha":1113,"x_min":0,"x_max":0,"o":"m 1036 421 b 804 653 1036 549 942 653 b 557 506 708 653 639 603 b 313 653 475 603 404 653 b 76 421 175 653 76 549 b 313 190 76 293 175 190 b 557 335 407 190 475 238 b 804 192 639 251 708 192 b 1036 421 942 192 1036 293 z m 928 419 b 800 292 928 346 871 292 b 617 419 738 292 681 343 b 800 547 681 496 738 547 b 928 419 871 547 928 493 z m 497 419 b 315 292 433 343 378 292 b 183 419 244 292 183 346 b 315 549 183 493 244 549 b 497 419 378 549 433 497 z "}," ":{"ha":319,"x_min":0,"x_max":0,"o":""},"≠":{"ha":961,"x_min":0,"x_max":0,"o":"m 815 186 l 815 293 l 446 293 l 576 478 l 815 478 l 815 585 l 650 585 l 726 693 l 657 742 l 547 585 l 146 585 l 146 478 l 472 478 l 343 293 l 146 293 l 146 186 l 268 186 l 188 71 l 257 22 l 372 186 z "},"":{"ha":778,"x_min":0,"x_max":0,"o":"m 696 0 l 696 108 l 490 108 l 490 965 l 378 965 l 142 794 l 142 663 l 371 831 l 371 108 l 165 108 l 165 0 z "},"π":{"ha":889,"x_min":0,"x_max":0,"o":"m 792 6 l 792 99 b 729 92 785 96 768 92 b 665 178 678 92 665 128 l 665 608 l 772 608 l 772 703 l 90 703 l 90 608 l 199 608 l 199 -1 l 315 -1 l 315 608 l 543 608 l 547 608 l 547 164 b 699 -10 547 76 586 -10 b 792 6 756 -10 785 3 z "},"∏":{"ha":1128,"x_min":0,"x_max":0,"o":"m 1038 1204 b 1010 1232 1038 1219 1025 1232 b 981 1204 994 1232 981 1219 b 1010 1175 981 1189 994 1175 b 1038 1204 1025 1175 1038 1189 z m 1036 854 b 1008 883 1036 869 1024 883 b 979 854 993 883 979 869 b 1006 825 979 839 989 825 b 1036 854 1021 825 1036 838 z m 683 1204 b 654 1232 683 1219 669 1232 b 625 1204 639 1232 625 1219 b 654 1175 625 1189 639 1175 b 683 1204 669 1175 683 1189 z m 861 1024 b 833 1053 861 1039 849 1053 b 804 1024 818 1053 804 1039 b 833 996 804 1008 818 996 b 861 1024 849 996 861 1008 z m 1033 507 b 1004 535 1033 522 1019 535 b 975 507 989 535 975 522 b 1004 478 975 492 989 478 b 1033 507 1019 478 1033 492 z m 682 854 b 653 883 682 869 668 883 b 624 854 638 883 624 869 b 653 825 624 839 638 825 b 682 854 668 825 682 839 z m 860 675 b 831 704 860 690 846 704 b 803 675 815 704 803 690 b 831 646 803 660 815 646 b 860 675 846 646 860 660 z m 329 1204 b 300 1232 329 1219 315 1232 b 272 1204 285 1232 272 1219 b 300 1175 272 1189 285 1175 b 329 1204 315 1175 329 1189 z m 507 1024 b 478 1053 507 1039 493 1053 b 449 1024 463 1053 449 1039 b 478 996 449 1008 463 996 b 507 1024 493 996 507 1008 z m 1035 157 b 1006 186 1035 172 1021 186 b 976 157 990 186 976 172 b 1006 128 976 142 990 128 b 1035 157 1021 128 1035 142 z m 678 507 b 649 535 678 522 664 535 b 619 507 633 535 619 522 b 649 478 619 492 633 478 b 678 507 664 478 678 492 z m 856 328 b 828 356 856 343 843 356 b 799 328 813 356 799 343 b 828 299 799 313 813 299 b 856 328 843 299 856 313 z m 328 854 b 299 883 328 869 314 883 b 269 854 283 883 269 869 b 299 825 269 839 283 825 b 328 854 314 825 328 839 z m 504 675 b 476 704 504 690 492 704 b 447 675 461 704 447 690 b 476 646 447 660 461 646 b 504 675 492 646 504 660 z m 153 1024 b 124 1053 153 1039 139 1053 b 94 1024 108 1053 94 1039 b 124 996 94 1008 108 996 b 153 1024 139 996 153 1008 z m 1035 -193 b 1006 -164 1035 -178 1021 -164 b 976 -193 990 -164 976 -178 b 1006 -222 976 -208 990 -222 b 1035 -193 1021 -222 1035 -208 z m 679 157 b 650 186 679 172 665 186 b 621 157 635 186 621 172 b 650 128 621 142 635 128 b 679 157 665 128 679 142 z m 857 -22 b 829 7 857 -7 844 7 b 800 -22 814 7 800 -7 b 829 -51 800 -37 814 -51 b 857 -22 844 -51 857 -37 z m 324 507 b 294 535 324 522 310 535 b 267 507 279 535 267 522 b 294 478 267 492 279 478 b 324 507 310 478 324 492 z m 501 328 b 472 356 501 343 488 356 b 443 328 457 356 443 343 b 472 299 443 313 457 299 b 501 328 488 299 501 313 z m 151 675 b 122 704 151 690 138 704 b 93 675 107 704 93 690 b 122 646 93 660 107 646 b 151 675 138 646 151 660 z m 679 -193 b 650 -164 679 -178 665 -164 b 621 -193 635 -164 621 -178 b 650 -222 621 -208 635 -222 b 679 -193 665 -222 679 -208 z m 857 -372 b 829 -344 857 -357 844 -344 b 800 -372 814 -344 800 -357 b 829 -401 800 -387 814 -401 b 857 -372 844 -401 857 -387 z m 325 157 b 297 186 325 172 313 186 b 268 157 282 186 268 172 b 297 128 268 142 282 128 b 325 157 313 128 325 142 z m 503 -22 b 474 7 503 -7 489 7 b 444 -22 458 7 444 -7 b 474 -51 444 -37 458 -51 b 503 -22 489 -51 503 -37 z m 147 328 b 118 356 147 343 133 356 b 90 328 103 356 90 343 b 118 299 90 313 103 299 b 147 328 133 299 147 313 z m 325 -193 b 296 -164 325 -178 311 -164 b 268 -193 281 -164 268 -178 b 296 -222 268 -208 281 -222 b 325 -193 311 -222 325 -208 z m 503 -372 b 474 -344 503 -357 489 -344 b 444 -372 458 -344 444 -357 b 474 -401 444 -387 458 -401 b 503 -372 489 -401 503 -387 z m 149 -22 b 119 7 149 -7 135 7 b 92 -22 104 7 92 -7 b 119 -51 92 -37 104 -51 b 149 -22 135 -51 149 -37 z m 149 -372 b 119 -344 149 -357 135 -344 b 90 -372 104 -344 90 -357 b 119 -401 90 -387 104 -401 b 149 -372 135 -401 149 -387 z "},"√":{"ha":958,"x_min":0,"x_max":0,"o":"m 958 1064 l 958 1156 l 713 1156 l 393 165 l 217 700 l 90 700 l 339 -11 l 446 -11 l 806 1064 z "},"℗":{"ha":1192,"x_min":0,"x_max":0,"o":"m 1097 493 b 596 1003 1097 778 883 1003 b 94 492 308 1003 94 776 b 596 -18 94 207 308 -18 b 1097 493 883 -18 1097 208 z m 1004 493 b 596 71 1004 250 842 71 b 188 492 350 71 188 249 b 596 914 188 735 350 914 b 1004 493 842 914 1004 736 z m 824 585 b 635 756 824 693 736 756 l 439 756 l 439 224 l 532 224 l 532 411 l 635 411 b 824 585 736 411 824 476 z m 726 585 b 635 497 726 526 690 497 l 531 497 l 531 669 l 635 669 b 726 585 685 669 726 639 z "},"":{"ha":778,"x_min":0,"x_max":0,"o":"m 711 483 b 597 904 711 669 694 806 b 389 985 550 951 485 985 b 181 904 293 985 228 951 b 67 483 83 806 67 669 b 181 64 67 297 83 163 b 389 -18 228 17 293 -18 b 597 64 485 -18 550 17 b 711 483 694 163 711 297 z m 556 764 l 194 319 b 190 483 189 372 190 429 b 269 832 190 614 188 754 b 389 876 297 858 338 876 b 508 832 440 876 481 858 b 556 764 529 813 544 790 z m 588 483 b 508 135 588 353 590 213 b 389 90 481 108 440 90 b 269 135 338 90 297 108 b 226 194 251 151 238 172 l 583 638 b 588 483 588 588 588 535 z "}}}
